<?xml version="1.0" standalone="no"?>
<!DOCTYPE svg PUBLIC "-//W3C//DTD SVG 20010904//EN"
 "http://www.w3.org/TR/2001/REC-SVG-20010904/DTD/svg10.dtd">
<svg version="1.0" xmlns="http://www.w3.org/2000/svg"
 width="512.000000pt" height="512.000000pt" viewBox="0 0 512.000000 512.000000"
 preserveAspectRatio="xMidYMid meet">
<metadata>
Created by potrace 1.11, written by Peter Selinger 2001-2013
</metadata>
<g transform="translate(0.000000,512.000000) scale(0.100000,-0.100000)"
fill="#000000" stroke="none">
<path d="M2295 5109 c-565 -57 -1116 -316 -1518 -713 -57 -56 -121 -123 -144
-151 -23 -27 -51 -60 -61 -72 -10 -12 -27 -34 -38 -48 -10 -15 -33 -46 -50
-69 -128 -171 -262 -426 -337 -641 -29 -80 -74 -237 -81 -278 -3 -15 -7 -35
-10 -45 -3 -9 -7 -34 -11 -56 -3 -21 -7 -41 -9 -45 -4 -6 -12 -72 -26 -201 -8
-85 -5 -454 4 -515 4 -22 13 -80 21 -130 29 -174 78 -357 142 -520 37 -93 123
-273 161 -335 12 -19 29 -48 38 -65 19 -35 138 -207 156 -227 7 -7 29 -34 48
-58 101 -131 286 -308 454 -434 226 -169 500 -308 781 -395 123 -38 289 -74
405 -87 30 -3 76 -10 103 -14 48 -7 471 -5 517 4 14 2 45 7 70 10 25 4 92 16
150 27 58 12 115 23 128 25 38 7 320 103 370 125 91 41 245 121 321 166 447
268 828 699 1020 1153 18 41 36 84 42 95 51 109 127 398 155 591 22 151 26
555 6 689 -100 664 -396 1198 -908 1635 -366 313 -861 523 -1354 574 -140 15
-423 17 -545 5z"/>
</g>
</svg>
